<svg width="88" height="59" viewBox="0 0 88 59" fill="none" xmlns="http://www.w3.org/2000/svg">
<path d="M58.125 9.75H54.875V24.375H33.75V27.625C33.75 28.5187 34.4812 29.25 35.375 29.25H53.25L59.75 35.75V11.375C59.75 10.4812 59.0187 9.75 58.125 9.75ZM51.625 19.5V4.875C51.625 3.98125 50.8937 3.25 50 3.25H28.875C27.9812 3.25 27.25 3.98125 27.25 4.875V27.625L33.75 21.125H50C50.8937 21.125 51.625 20.3937 51.625 19.5Z" fill="#004694"/>
<path d="M7.06738 53.6826H3.21191L2.40527 56H0.607422L4.36719 46.0469H5.91895L9.68555 56H7.88086L7.06738 53.6826ZM3.69727 52.2881H6.58203L5.13965 48.1592L3.69727 52.2881ZM18.7275 46.0469V52.6982C18.7275 53.7555 18.388 54.5941 17.709 55.2139C17.0345 55.8291 16.1344 56.1367 15.0088 56.1367C13.8695 56.1367 12.9648 55.8337 12.2949 55.2275C11.625 54.6169 11.29 53.7715 11.29 52.6914V46.0469H13.0127V52.7051C13.0127 53.3704 13.1813 53.8786 13.5186 54.2295C13.8558 54.5804 14.3525 54.7559 15.0088 54.7559C16.3395 54.7559 17.0049 54.054 17.0049 52.6504V46.0469H18.7275ZM21.3301 56V46.0469H24.2695C25.1491 46.0469 25.9284 46.2428 26.6074 46.6348C27.291 47.0267 27.8197 47.5827 28.1934 48.3027C28.5671 49.0228 28.7539 49.8477 28.7539 50.7773V51.2764C28.7539 52.2197 28.5648 53.0492 28.1865 53.7646C27.8128 54.4801 27.2773 55.0316 26.5801 55.4189C25.8874 55.8063 25.0921 56 24.1943 56H21.3301ZM23.0596 47.4414V54.6191H24.1875C25.0944 54.6191 25.7894 54.3366 26.2725 53.7715C26.7601 53.2018 27.0085 52.3861 27.0176 51.3242V50.7705C27.0176 49.6904 26.7829 48.8656 26.3135 48.2959C25.8441 47.7262 25.1628 47.4414 24.2695 47.4414H23.0596ZM33.0518 56H31.3291V46.0469H33.0518V56ZM41.7451 51.5566H37.6572V54.6191H42.4355V56H35.9277V46.0469H42.3877V47.4414H37.6572V50.1895H41.7451V51.5566ZM41.5537 45.2266V45.3018H40.2207L39.1953 44.2354L38.1768 45.3018H36.8574V45.2129L38.71 43.3262H39.6875L41.5537 45.2266ZM52.4893 56H50.7598L46.3232 48.9385V56H44.5938V46.0469H46.3232L50.7734 53.1357V46.0469H52.4893V56ZM62.8779 52.7598C62.7777 53.8216 62.3857 54.651 61.7021 55.248C61.0186 55.8405 60.1094 56.1367 58.9746 56.1367C58.1816 56.1367 57.4821 55.9499 56.876 55.5762C56.2744 55.1979 55.8096 54.6624 55.4814 53.9697C55.1533 53.277 54.9824 52.4727 54.9688 51.5566V50.627C54.9688 49.6882 55.1351 48.861 55.4678 48.1455C55.8005 47.43 56.2767 46.8786 56.8965 46.4912C57.5208 46.1038 58.2409 45.9102 59.0566 45.9102C60.1549 45.9102 61.0391 46.2087 61.709 46.8057C62.3789 47.4027 62.7686 48.2458 62.8779 49.335H61.1553C61.0732 48.6195 60.8636 48.1045 60.5264 47.79C60.1937 47.471 59.7038 47.3115 59.0566 47.3115C58.3047 47.3115 57.7259 47.5872 57.3203 48.1387C56.9193 48.6855 56.7142 49.4899 56.7051 50.5518V51.4336C56.7051 52.5091 56.8965 53.3294 57.2793 53.8945C57.6667 54.4596 58.2318 54.7422 58.9746 54.7422C59.6536 54.7422 60.1641 54.5895 60.5059 54.2842C60.8477 53.9788 61.0641 53.4707 61.1553 52.7598H62.8779ZM67.0049 56H65.2822V46.0469H67.0049V56ZM75.5752 53.6826H71.7197L70.9131 56H69.1152L72.875 46.0469H74.4268L78.1934 56H76.3887L75.5752 53.6826ZM72.2051 52.2881H75.0898L73.6475 48.1592L72.2051 52.2881ZM85.2803 53.4365C85.2803 52.999 85.1253 52.6618 84.8154 52.4248C84.5101 52.1878 83.9564 51.9486 83.1543 51.707C82.3522 51.4655 81.7142 51.1966 81.2402 50.9004C80.3333 50.3307 79.8799 49.5879 79.8799 48.6719C79.8799 47.8698 80.2057 47.209 80.8574 46.6895C81.5137 46.1699 82.3636 45.9102 83.4072 45.9102C84.0999 45.9102 84.7174 46.0378 85.2598 46.293C85.8021 46.5482 86.2282 46.9128 86.5381 47.3867C86.848 47.8561 87.0029 48.3779 87.0029 48.9521H85.2803C85.2803 48.4326 85.1162 48.027 84.7881 47.7354C84.4645 47.4391 83.9997 47.291 83.3936 47.291C82.8285 47.291 82.3887 47.4118 82.0742 47.6533C81.7643 47.8949 81.6094 48.2321 81.6094 48.665C81.6094 49.0296 81.778 49.335 82.1152 49.5811C82.4525 49.8226 83.0085 50.0596 83.7832 50.292C84.5579 50.5199 85.18 50.7819 85.6494 51.0781C86.1188 51.3698 86.4629 51.707 86.6816 52.0898C86.9004 52.4681 87.0098 52.9124 87.0098 53.4229C87.0098 54.2523 86.6908 54.9131 86.0527 55.4053C85.4193 55.8929 84.5579 56.1367 83.4688 56.1367C82.7487 56.1367 82.0856 56.0046 81.4795 55.7402C80.8779 55.4714 80.4085 55.1022 80.0713 54.6328C79.7386 54.1634 79.5723 53.6165 79.5723 52.9922H81.3018C81.3018 53.5573 81.4886 53.9948 81.8623 54.3047C82.236 54.6146 82.7715 54.7695 83.4688 54.7695C84.0703 54.7695 84.5215 54.6488 84.8223 54.4072C85.1276 54.1611 85.2803 53.8376 85.2803 53.4365Z" fill="#004694"/>
</svg>
