<svg width="517" height="45" viewBox="0 0 517 45" fill="none" xmlns="http://www.w3.org/2000/svg">
<path d="M30.375 20.25C32.2425 20.25 33.75 18.7425 33.75 16.875C33.75 15.0075 32.2425 13.5 30.375 13.5C28.5074 13.5 27 15.0075 27 16.875C27 18.7425 28.5074 20.25 30.375 20.25Z" fill="#FF3C27"/>
<path d="M14.625 20.25C16.4926 20.25 18 18.7425 18 16.875C18 15.0075 16.4926 13.5 14.625 13.5C12.7575 13.5 11.25 15.0075 11.25 16.875C11.25 18.7425 12.7575 20.25 14.625 20.25Z" fill="#FF3C27"/>
<path d="M22.4999 27C17.2574 27 12.8137 30.2737 11.0137 34.875H33.9862C32.1862 30.2737 27.7425 27 22.4999 27Z" fill="#FF3C27"/>
<path d="M22.4888 0C10.0575 0 0 10.0688 0 22.4999C0 34.9311 10.0575 44.9999 22.4888 44.9999C34.92 44.9999 45 34.9311 45 22.4999C45 10.0688 34.9199 0 22.4888 0ZM22.4999 40.5C12.555 40.5 4.49993 32.445 4.49993 22.4999C4.49993 12.5549 12.555 4.50003 22.4999 4.50003C32.4449 4.50003 40.5 12.555 40.5 22.4999C40.5 32.4449 32.445 40.5 22.4999 40.5Z" fill="#FF3C27"/>
<path d="M132.625 20.25C134.493 20.25 136 18.7425 136 16.875C136 15.0075 134.493 13.5 132.625 13.5C130.757 13.5 129.25 15.0075 129.25 16.875C129.25 18.7425 130.757 20.25 132.625 20.25Z" fill="#FF6B00"/>
<path d="M148.375 20.25C150.243 20.25 151.75 18.7425 151.75 16.875C151.75 15.0075 150.243 13.5 148.375 13.5C146.507 13.5 145 15.0075 145 16.875C145 18.7425 146.507 20.25 148.375 20.25Z" fill="#FF6B00"/>
<path d="M140.477 0C128.057 0 118 10.08 118 22.4999C118 34.9199 128.057 44.9999 140.477 44.9999C152.92 44.9999 163 34.9199 163 22.4999C163 10.08 152.92 0 140.477 0ZM140.5 40.5C130.555 40.5 122.5 32.445 122.5 22.4999C122.5 12.5549 130.555 4.50003 140.5 4.50003C150.445 4.50003 158.5 12.555 158.5 22.4999C158.5 32.4449 150.445 40.5 140.5 40.5Z" fill="#FF6B00"/>
<path d="M140.5 27C135.257 27 130.78 30.2737 128.98 34.875H132.749C134.313 32.1975 137.181 30.375 140.5 30.375C143.819 30.375 146.688 32.1975 148.251 34.875H152.02C150.22 30.2737 145.743 27 140.5 27Z" fill="#FF6B00"/>
<path d="M258.477 0C246.057 0 236 10.08 236 22.4999C236 34.9199 246.057 44.9999 258.477 44.9999C270.92 44.9999 281 34.9199 281 22.4999C281 10.08 270.92 0 258.477 0ZM258.5 40.5C248.555 40.5 240.5 32.445 240.5 22.4999C240.5 12.5549 248.555 4.50003 258.5 4.50003C268.445 4.50003 276.5 12.555 276.5 22.4999C276.5 32.4449 268.445 40.5 258.5 40.5Z" fill="#FAFF00"/>
<path d="M265.25 27H251.75V30.375H265.25V27Z" fill="#FAFF00"/>
<path d="M254 16.875C254 15.0075 252.493 13.5 250.625 13.5C248.757 13.5 247.25 15.0075 247.25 16.875C247.25 18.7425 248.757 20.25 250.625 20.25C252.493 20.25 254 18.7425 254 16.875Z" fill="#FAFF00"/>
<path d="M266.375 13.5C264.507 13.5 263 15.0075 263 16.875C263 18.7425 264.507 20.25 266.375 20.25C268.243 20.25 269.75 18.7425 269.75 16.875C269.75 15.0075 268.243 13.5 266.375 13.5Z" fill="#FAFF00"/>
<path d="M368.625 20.25C370.493 20.25 372 18.7425 372 16.875C372 15.0075 370.493 13.5 368.625 13.5C366.757 13.5 365.25 15.0075 365.25 16.875C365.25 18.7425 366.757 20.25 368.625 20.25Z" fill="#ADFF00"/>
<path d="M384.375 20.25C386.242 20.25 387.75 18.7425 387.75 16.875C387.75 15.0075 386.242 13.5 384.375 13.5C382.507 13.5 381 15.0075 381 16.875C381 18.7425 382.507 20.25 384.375 20.25Z" fill="#ADFF00"/>
<path d="M376.5 31.5C373.181 31.5 370.312 29.6775 368.749 27H364.98C366.78 31.6013 371.258 34.875 376.5 34.875C381.743 34.875 386.22 31.6013 388.02 27H384.251C382.687 29.6775 379.819 31.5 376.5 31.5Z" fill="#ADFF00"/>
<path d="M376.477 0C364.057 0 354 10.08 354 22.4999C354 34.9199 364.057 44.9999 376.477 44.9999C388.92 44.9999 399 34.9199 399 22.4999C399 10.08 388.92 0 376.477 0ZM376.5 40.5C366.555 40.5 358.5 32.445 358.5 22.4999C358.5 12.5549 366.555 4.50003 376.5 4.50003C386.445 4.50003 394.5 12.555 394.5 22.4999C394.5 32.4449 386.445 40.5 376.5 40.5Z" fill="#ADFF00"/>
<path d="M502.375 20.25C504.243 20.25 505.75 18.7425 505.75 16.875C505.75 15.0075 504.243 13.5 502.375 13.5C500.507 13.5 499 15.0075 499 16.875C499 18.7425 500.507 20.25 502.375 20.25Z" fill="#00E676"/>
<path d="M494.489 0C482.057 0 472 10.0688 472 22.4999C472 34.9311 482.057 44.9999 494.489 44.9999C506.92 44.9999 517 34.9311 517 22.4999C517 10.0688 506.92 0 494.489 0ZM494.5 40.5C484.555 40.5 476.5 32.445 476.5 22.4999C476.5 12.5549 484.555 4.50003 494.5 4.50003C504.445 4.50003 512.5 12.555 512.5 22.4999C512.5 32.4449 504.445 40.5 494.5 40.5Z" fill="#00E676"/>
<path d="M486.625 20.25C488.493 20.25 490 18.7425 490 16.875C490 15.0075 488.493 13.5 486.625 13.5C484.757 13.5 483.25 15.0075 483.25 16.875C483.25 18.7425 484.757 20.25 486.625 20.25Z" fill="#00E676"/>
<path d="M494.5 34.875C499.742 34.875 504.186 31.6013 505.986 27H483.014C484.814 31.6013 489.258 34.875 494.5 34.875Z" fill="#00E676"/>
</svg>
