<svg width="686" height="37" viewBox="0 0 686 37" fill="none" xmlns="http://www.w3.org/2000/svg">
<g opacity="0.38">
<path fill-rule="evenodd" clip-rule="evenodd" d="M0 19C0 18.4477 0.447715 18 1 18H685C685.552 18 686 18.4477 686 19C686 19.5523 685.552 20 685 20H1.00002C0.447732 20 0 19.5523 0 19Z" fill="#4D71C5"/>
</g>
<path fill-rule="evenodd" clip-rule="evenodd" d="M0 19C0 18.4477 0.447715 18 1 18H342C342.552 18 343 18.4477 343 19C343 19.5523 342.552 20 342 20H0.999997C0.447712 20 0 19.5523 0 19Z" fill="#C56200"/>
<circle cx="342.5" cy="18.05" r="17.5" fill="#004694"/>
</svg>
